<?xml version="1.0" encoding="UTF-8" standalone="no"?><svg width="141" height="54" viewBox="0 0 141 54" xmlns="http://www.w3.org/2000/svg" xmlns:xlink="http://www.w3.org/1999/xlink"><svg width="46" height="54" fill="none" viewBox="0 0 46 54" id="src--svg--native" xmlns="http://www.w3.org/2000/svg"><path d="M0 32.581L11.476 0h14.153L14.152 32.581z" fill="url(#alinearGradient2465)" fill-rule="evenodd"/><path d="M10.183 43.29L21.66 10.71h14.155L24.337 43.29z" fill="url(#apaint1_linear)"/><path d="M20.37 54l11.478-32.58H46L34.524 54z" fill="url(#apaint2_linear)"/><defs id="adefs33"><linearGradient id="apaint0_linear" x1="20.657" y1="5.604" x2="38.009" y2="68.768" gradientUnits="userSpaceOnUse"><stop stop-color="#29D3DA" id="astop8"/><stop offset=".519" stop-color="#07F" id="astop10"/><stop offset=".999" stop-color="#064093" id="astop12"/><stop offset="1" stop-color="#084698" id="astop14"/></linearGradient><linearGradient gradientTransform="matrix(.99494 0 0 1 -11.156 -3)" id="apaint1_linear" x1="28.521" y1="6.112" x2="42.329" y2="58.007" gradientUnits="userSpaceOnUse"><stop offset=".012" stop-color="#E0B386" id="astop17"/><stop offset=".519" stop-color="#DA498C" id="astop19"/><stop offset="1" stop-color="#961484" id="astop21"/></linearGradient><linearGradient gradientTransform="matrix(.99494 0 0 1 -11.156 -3)" id="apaint2_linear" x1="62.459" y1="63.173" x2="41.19" y2="38.776" gradientUnits="userSpaceOnUse"><stop stop-color="#29D3DA" id="astop24"/><stop offset=".519" stop-color="#07F" id="astop26"/><stop offset=".999" stop-color="#064093" id="astop28"/><stop offset="1" stop-color="#084698" id="astop30"/></linearGradient><linearGradient gradientTransform="matrix(.99494 0 0 1 -11.156 -3)" y2="68.768" x2="38.009" y1="5.604" x1="20.657" gradientUnits="userSpaceOnUse" id="alinearGradient2465" xlink:href="#apaint0_linear"/></defs></svg><svg height="54" width="51" fill="none" viewBox="0 0 51 54" id="src--svg--service" x="46" xmlns="http://www.w3.org/2000/svg"><g clip-rule="evenodd" fill-rule="evenodd"><path d="M25.742 99.717C33.63 104.964 42.968 108 52.98 108c28.25 0 51.152-24.177 51.152-54 0-10.568-2.876-20.428-7.847-28.753L81.18 41.19A33.846 33.846 0 0 1 83.672 54c0 17.894-13.74 32.4-30.69 32.4-4.31 0-8.413-.938-12.134-2.63z" fill="url(#bpaint0_linear)" transform="matrix(.49852 0 0 .5 -.911 0)"/><path d="M82.141 9.63C73.87 3.557 63.818 0 52.98 0 24.73 0 1.828 24.177 1.828 54c0 11.442 3.37 22.052 9.121 30.785l14.867-15.694c-2.251-4.507-3.525-9.642-3.525-15.091 0-17.894 13.74-32.4 30.69-32.4a29.277 29.277 0 0 1 14.296 3.722z" fill="url(#bpaint1_linear)" transform="matrix(.49852 0 0 .5 -.911 0)"/></g><defs id="bdefs22"><linearGradient gradientUnits="userSpaceOnUse" y2="-10.374" x2="7.335" y1="137.938" x1="94.963" id="bpaint0_linear"><stop id="bstop6" stop-color="#E0B386" offset=".012"/><stop id="bstop8" stop-color="#DA498C" offset=".519"/><stop id="bstop10" stop-color="#961484" offset="1"/></linearGradient><linearGradient gradientUnits="userSpaceOnUse" y2="177.636" x2="56.458" y1="-1.968" x1="52.031" id="bpaint1_linear"><stop id="bstop13" stop-color="#29D3DA"/><stop id="bstop15" stop-color="#07F" offset=".519"/><stop id="bstop17" stop-color="#064093" offset=".999"/><stop id="bstop19" stop-color="#084698" offset="1"/></linearGradient></defs></svg><svg height="54" width="44" fill="none" viewBox="0 0 44 54" id="src--svg--web" x="97" xmlns="http://www.w3.org/2000/svg"><path d="M20.056 54h13.826L44 36.048 33.882 18.093H20.057l10.118 17.955z" fill="url(#cpaint0_linear)"/><path d="M30.175 36.048L20.055 54h13.827L44 36.048" fill="url(#cpaint1_linear)"/><path d="M20.056 54h13.826L44 36.048" fill="url(#cpaint2_linear)"/><path d="M10.118 35.907h13.827l-10.12-17.953L23.945 0H10.118L0 17.954z" fill="url(#cpaint3_linear)"/><path d="M0 17.954l10.118 17.953h13.827l-10.12-17.953" fill="url(#cpaint4_linear)"/><path d="M0 17.954l10.118 17.953h13.827" fill="url(#cpaint5_linear)"/><defs id="cdefs62"><linearGradient gradientTransform="matrix(1.0098 0 0 1 -.73 0)" gradientUnits="userSpaceOnUse" y2="38.195" x2="26.01" y1="17.531" x1="10.019" id="cpaint0_linear"><stop id="cstop14" stop-color="#E0B386" offset=".012"/><stop id="cstop16" stop-color="#DA498C" offset=".519"/><stop id="cstop18" stop-color="#961484" offset="1"/></linearGradient><linearGradient gradientTransform="matrix(1.0098 0 0 1 -.73 0)" gradientUnits="userSpaceOnUse" y2="15.42" x2="46.145" y1="54.865" x1="23.035" id="cpaint1_linear"><stop id="cstop21" stop-color="#E0B386" offset=".012"/><stop id="cstop23" stop-color="#DA498C" offset=".519"/><stop id="cstop25" stop-color="#961484" offset="1"/></linearGradient><linearGradient gradientTransform="matrix(1.0098 0 0 1 -.73 0)" gradientUnits="userSpaceOnUse" y2="34.982" x2="25.383" y1="51.099" x1="30.078" id="cpaint2_linear"><stop id="cstop28" stop-color="#E0B386" offset=".012"/><stop id="cstop30" stop-color="#DA498C" offset=".519"/><stop id="cstop32" stop-color="#961484" offset="1"/></linearGradient><linearGradient gradientTransform="matrix(1.0098 0 0 1 -.73 0)" gradientUnits="userSpaceOnUse" y2="25.894" x2="16.333" y1="-10.866" x1="23.09" id="cpaint3_linear"><stop id="cstop35" stop-color="#29D3DA"/><stop id="cstop37" stop-color="#07F" offset=".519"/><stop id="cstop39" stop-color="#064093" offset=".999"/><stop id="cstop41" stop-color="#084698" offset="1"/></linearGradient><linearGradient gradientTransform="matrix(1.0098 0 0 1 -.73 0)" gradientUnits="userSpaceOnUse" y2="-.937" x2="3.848" y1="32.536" x1="18.961" id="cpaint4_linear"><stop id="cstop44" stop-color="#29D3DA"/><stop id="cstop46" stop-color="#07F" offset=".519"/><stop id="cstop48" stop-color="#064093" offset=".999"/><stop id="cstop50" stop-color="#084698" offset="1"/></linearGradient><linearGradient gradientTransform="matrix(1.0098 0 0 1 -.73 0)" gradientUnits="userSpaceOnUse" y2="11.902" x2="32.153" y1="28.101" x1="15.47" id="cpaint5_linear"><stop id="cstop53" stop-color="#29D3DA"/><stop id="cstop55" stop-color="#07F" offset=".519"/><stop id="cstop57" stop-color="#064093" offset=".999"/><stop id="cstop59" stop-color="#084698" offset="1"/></linearGradient></defs></svg></svg>