<?xml version="1.0" encoding="UTF-8" standalone="no"?>
<svg
   xmlns:dc="http://purl.org/dc/elements/1.1/"
   xmlns:cc="http://creativecommons.org/ns#"
   xmlns:rdf="http://www.w3.org/1999/02/22-rdf-syntax-ns#"
   xmlns:svg="http://www.w3.org/2000/svg"
   xmlns="http://www.w3.org/2000/svg"
   xmlns:sodipodi="http://sodipodi.sourceforge.net/DTD/sodipodi-0.dtd"
   xmlns:inkscape="http://www.inkscape.org/namespaces/inkscape"
   width="112"
   height="112"
   viewBox="0 0 112 112"
   fill="none"
   version="1.1"
   id="svg21"
   sodipodi:docname="avatar.svg"
   inkscape:version="0.92.4 5da689c313, 2019-01-14">
  <metadata
     id="metadata27">
    <rdf:RDF>
      <cc:Work
         rdf:about="">
        <dc:format>image/svg+xml</dc:format>
        <dc:type
           rdf:resource="http://purl.org/dc/dcmitype/StillImage" />
      </cc:Work>
    </rdf:RDF>
  </metadata>
  <defs
     id="defs25" />
  <sodipodi:namedview
     pagecolor="#ffffff"
     bordercolor="#666666"
     borderopacity="1"
     objecttolerance="10"
     gridtolerance="10"
     guidetolerance="10"
     inkscape:pageopacity="0"
     inkscape:pageshadow="2"
     inkscape:window-width="3390"
     inkscape:window-height="1363"
     id="namedview23"
     showgrid="false"
     inkscape:zoom="7.4435616"
     inkscape:cx="75.436498"
     inkscape:cy="58.619255"
     inkscape:window-x="20"
     inkscape:window-y="47"
     inkscape:window-maximized="0"
     inkscape:current-layer="svg21" />
  <mask
     id="mask0"
     mask-type="alpha"
     maskUnits="userSpaceOnUse"
     x="0"
     y="0"
     width="112"
     height="112">
    <path
       fill-rule="evenodd"
       clip-rule="evenodd"
       d="M56 112C86.9279 112 112 86.9279 112 56C112 25.0721 86.9279 0 56 0C25.0721 0 0 25.0721 0 56C0 86.9279 25.0721 112 56 112Z"
       fill="#D0DAE3"
       id="path12" />
  </mask>
  <g
     mask="url(#mask0)"
     id="g19">
    <path
       d="M 39.3378,87.8081 22.6281,96.9223 C 21.6475,97.457 20.7662,98.1142 19.9463,98.8306 29.6886,107.045 42.2647,112 56.0053,112 69.6445,112 82.1404,107.119 91.8552,99.0165 90.9591,98.26 89.987,97.5795 88.9092,97.0428 L 71.016,88.0976 c -2.3119,-1.156 -3.7722,-3.5185 -3.7722,-6.103 v -7.02 c 0.503,-0.5727 1.0778,-1.3081 1.6928,-2.1766 2.4387,-3.4446 4.2836,-7.2336 5.5621,-11.2085 2.2951,-0.7079 3.9857,-2.8275 3.9857,-5.3464 v -7.4935 c 0,-1.6483 -0.7333,-3.1212 -1.8724,-4.1524 V 33.7649 c 0,0 2.2253,-16.8571 -20.6046,-16.8571 -22.8298,0 -20.6045,16.8571 -20.6045,16.8571 v 10.8323 c -1.1412,1.0312 -1.8724,2.5041 -1.8724,4.1524 v 7.4935 c 0,1.9737 1.0376,3.7108 2.5909,4.7146 1.8724,8.1506 6.7752,14.0169 6.7752,14.0169 v 6.8468 c -0.0021,2.4935 -1.3673,4.7906 -3.5588,5.9867 z"
       id="path15"
       inkscape:connector-curvature="0"
       style="fill:#d0dae3;fill-opacity:1" />
    <path
       d="M 56.9594,0.00833906 C 26.0356,-0.519963 0.536667,24.12 0.0083449,55.0426 -0.291742,72.5759 7.5232,88.3341 19.9662,98.8135 c 0.8137,-0.7101 1.6864,-1.3609 2.6564,-1.8892 L 39.3324,87.81 c 2.1915,-1.1961 3.5567,-3.4931 3.5567,-5.9909 v -6.8468 c 0,0 -4.905,-5.8663 -6.7752,-14.0169 -1.5512,-1.0038 -2.5909,-2.7388 -2.5909,-4.7146 v -7.4934 c 0,-1.6483 0.7333,-3.1212 1.8724,-4.1525 V 33.7626 c 0,0 -2.2253,-16.8571 20.6045,-16.8571 22.8299,0 20.6046,16.8571 20.6046,16.8571 v 10.8323 c 1.1412,1.0313 1.8724,2.5042 1.8724,4.1525 v 7.4934 c 0,2.5189 -1.6907,4.6385 -3.9857,5.3464 -1.2785,3.975 -3.1234,7.7639 -5.5622,11.2085 -0.6149,0.8685 -1.1897,1.6039 -1.6927,2.1766 v 7.02 c 0,2.5845 1.4603,4.9492 3.7722,6.103 l 17.8932,8.9452 c 1.0736,0.5368 2.0436,1.2151 2.9375,1.9695 C 103.906,88.9469 111.702,73.9009 111.992,56.9572 112.524,26.0346 87.8852,0.536641 56.9594,0.00833906 Z"
       id="path17"
       inkscape:connector-curvature="0"
       style="fill:#556080" />
  </g>
</svg>
