<?xml version="1.0" encoding="UTF-8" standalone="no"?>
<svg
   xmlns:dc="http://purl.org/dc/elements/1.1/"
   xmlns:cc="http://creativecommons.org/ns#"
   xmlns:rdf="http://www.w3.org/1999/02/22-rdf-syntax-ns#"
   xmlns:svg="http://www.w3.org/2000/svg"
   xmlns="http://www.w3.org/2000/svg"
   style="fill:none"
   id="svg24"
   version="1.1"
   viewBox="0 0 102 108"
   height="108"
   width="102">
  <metadata
     id="metadata28">
    <rdf:RDF>
      <cc:Work
         rdf:about="">
        <dc:format>image/svg+xml</dc:format>
        <dc:type
           rdf:resource="http://purl.org/dc/dcmitype/StillImage" />
        <dc:title></dc:title>
      </cc:Work>
    </rdf:RDF>
  </metadata>
  <g
     transform="matrix(0.99703938,0,0,1,-1.8227076,0)"
     id="g837">
    <path
       style="clip-rule:evenodd;fill:url(#paint0_linear);fill-rule:evenodd"
       d="M 25.7422,99.7166 C 33.6287,104.964 42.9681,108 52.9791,108 c 28.2503,0 51.1519,-24.1765 51.1519,-53.9998 0,-10.5685 -2.876,-20.4279 -7.8469,-28.7536 L 81.1805,41.1912 C 82.7838,45.12 83.672,49.4505 83.672,54 c 0,17.894 -13.7408,32.3999 -30.6909,32.3999 -4.3095,0 -8.4116,-0.9377 -12.1331,-2.6303 z"
       id="path2" />
    <path
       style="clip-rule:evenodd;fill:url(#paint1_linear);fill-rule:evenodd"
       d="M 82.1413,9.62913 C 73.8689,3.5585 63.8179,0 52.9797,0 24.7295,0 1.82812,24.1766 1.82812,53.9999 c 0,11.4418 3.3708,22.0524 9.12118,30.7855 L 25.8161,69.0908 c -2.2511,-4.5069 -3.5254,-9.6419 -3.5254,-15.0911 0,-17.894 13.7408,-32.4 30.691,-32.4 5.1617,0 10.0259,1.3453 14.295,3.7218 z"
       id="path4" />
  </g>
  <defs
     id="defs22">
    <linearGradient
       gradientUnits="userSpaceOnUse"
       y2="-10.3744"
       x2="7.3348598"
       y1="137.938"
       x1="94.962502"
       id="paint0_linear">
      <stop
         id="stop6"
         stop-color="#E0B386"
         offset="0.012" />
      <stop
         id="stop8"
         stop-color="#DA498C"
         offset="0.519" />
      <stop
         id="stop10"
         stop-color="#961484"
         offset="1" />
    </linearGradient>
    <linearGradient
       gradientUnits="userSpaceOnUse"
       y2="177.636"
       x2="56.457901"
       y1="-1.96811"
       x1="52.0312"
       id="paint1_linear">
      <stop
         id="stop13"
         stop-color="#29D3DA" />
      <stop
         id="stop15"
         stop-color="#0077FF"
         offset="0.519" />
      <stop
         id="stop17"
         stop-color="#064093"
         offset="0.999" />
      <stop
         id="stop19"
         stop-color="#084698"
         offset="1" />
    </linearGradient>
  </defs>
</svg>
