<svg width="112" height="112" viewBox="0 0 112 112" fill="none" xmlns="http://www.w3.org/2000/svg">
<path fill-rule="evenodd" clip-rule="evenodd" d="M56 112C86.9279 112 112 86.9279 112 56C112 25.0721 86.9279 0 56 0C25.0721 0 0 25.0721 0 56C0 86.9279 25.0721 112 56 112Z" fill="#D0DAE3"/>
<mask id="mask0" mask-type="alpha" maskUnits="userSpaceOnUse" x="0" y="0" width="112" height="112">
<path fill-rule="evenodd" clip-rule="evenodd" d="M56 112C86.9279 112 112 86.9279 112 56C112 25.0721 86.9279 0 56 0C25.0721 0 0 25.0721 0 56C0 86.9279 25.0721 112 56 112Z" fill="#D0DAE3"/>
</mask>
<g mask="url(#mask0)">
<path d="M39.3378 87.8081L22.6281 96.9223C21.6475 97.457 20.7662 98.1142 19.9463 98.8306C29.6886 107.045 42.2647 112 56.0053 112C69.6445 112 82.1404 107.119 91.8552 99.0165C90.9591 98.26 89.987 97.5795 88.9092 97.0428L71.016 88.0976C68.7041 86.9416 67.2438 84.5791 67.2438 81.9946V74.9746C67.7468 74.4019 68.3216 73.6665 68.9366 72.798C71.3753 69.3534 73.2202 65.5644 74.4987 61.5895C76.7938 60.8816 78.4844 58.762 78.4844 56.2431V48.7496C78.4844 47.1013 77.7511 45.6284 76.612 44.5972V33.7649C76.612 33.7649 78.8373 16.9078 56.0074 16.9078C33.1776 16.9078 35.4029 33.7649 35.4029 33.7649V44.5972C34.2617 45.6284 33.5305 47.1013 33.5305 48.7496V56.2431C33.5305 58.2168 34.5681 59.9539 36.1214 60.9577C37.9938 69.1083 42.8966 74.9746 42.8966 74.9746V81.8214C42.8945 84.3149 41.5293 86.612 39.3378 87.8081Z" fill="#E7ECED"/>
<path d="M56.9594 0.00833906C26.0356 -0.519963 0.536667 24.12 0.0083449 55.0426C-0.291742 72.5759 7.5232 88.3341 19.9662 98.8135C20.7799 98.1034 21.6526 97.4526 22.6226 96.9243L39.3324 87.81C41.5239 86.6139 42.8891 84.3169 42.8891 81.8191V74.9723C42.8891 74.9723 37.9841 69.106 36.1139 60.9554C34.5627 59.9516 33.523 58.2166 33.523 56.2408V48.7474C33.523 47.0991 34.2563 45.6262 35.3954 44.5949V33.7626C35.3954 33.7626 33.1701 16.9055 55.9999 16.9055C78.8298 16.9055 76.6045 33.7626 76.6045 33.7626V44.5949C77.7457 45.6262 78.4769 47.0991 78.4769 48.7474V56.2408C78.4769 58.7597 76.7862 60.8793 74.4912 61.5872C73.2127 65.5622 71.3678 69.3511 68.929 72.7957C68.3141 73.6642 67.7393 74.3996 67.2363 74.9723V81.9923C67.2363 84.5768 68.6966 86.9415 71.0085 88.0953L88.9017 97.0405C89.9753 97.5773 90.9453 98.2556 91.8392 99.01C103.906 88.9469 111.702 73.9009 111.992 56.9572C112.524 26.0346 87.8852 0.536641 56.9594 0.00833906Z" fill="#556080"/>
</g>
</svg>
